<svg width="64" height="64" fill="none" xmlns="http://www.w3.org/2000/svg"><g clip-path="url(#clip0)"><path d="M12.472 51.12l-2.143-3.714-2.144 3.714 2.144 1.516 2.143-1.516zm24.413 9.871c2.88-4.989 5.765-9.981 8.646-14.97l-6.74-11.672-6.172 4.362a.91.91 0 01-1.063.014l-6.193-4.38a45148.88 45148.88 0 01-10.24 17.742c1.714 2.966 3.43 5.935 5.144 8.904h16.618zm-18.715 0c-1.598-2.763-3.19-5.527-4.787-8.291l-2.516 1.779a.91.91 0 01-1.063.014L7.271 52.7l-4.784 8.291H18.17zm43.344 0c-2.31-4-4.617-8-6.923-11.997l-3.802 2.686a.904.904 0 01-1.063.01l-3.816-2.696c-2.31 3.997-4.617 8-6.927 11.997h22.531zM6.824 26.848a.91.91 0 110 1.821h-1.74a5.07 5.07 0 01-3.592-1.492 5.062 5.062 0 010-7.178 5.09 5.09 0 012.735-1.421A6.232 6.232 0 016 15.003a6.226 6.226 0 017.356-1.088 6.27 6.27 0 011.753 1.393 4.017 4.017 0 011.46-.28 3.96 3.96 0 012.81 1.165 3.958 3.958 0 011.145 2.396 5.065 5.065 0 012.675 1.41 5.062 5.062 0 010 7.179 5.068 5.068 0 01-3.59 1.492h-8.532a.91.91 0 110-1.822h8.532a3.25 3.25 0 002.3-.956c.592-.592.96-1.407.96-2.303 0-.897-.368-1.712-.96-2.304-.826-.825-1.403-.832-2.424-.967a.91.91 0 01-.78-1.024 2.185 2.185 0 00-.612-1.814c-.39-.39-.928-.63-1.524-.63-.46 0-.832.12-1.215.371a.908.908 0 01-1.258-.255 4.483 4.483 0 00-1.595-1.453 4.418 4.418 0 00-2.086-.517 4.413 4.413 0 00-4.419 4.422c0 .5-.41.91-.91.91a3.25 3.25 0 00-2.304.957 3.253 3.253 0 00-.96 2.304c0 .896.369 1.711.96 2.303a3.25 3.25 0 002.304.956h1.74zm2.718 18.294a.906.906 0 011.577.007l2.955 5.12L26.73 28.354a.905.905 0 111.57.904l-2.023 3.507 5.8 4.103 5.8-4.103-5.8-10.049-1.65 2.86a.906.906 0 01-1.237.337.91.91 0 01-.337-1.24l2.314-4.008V2.098a.91.91 0 01.91-.91h17.628a.91.91 0 01.91.91v3.791h7.902a.91.91 0 01.677 1.52l-3.08 4.093 3.13 4.156c.3.4.22.968-.181 1.269a.92.92 0 01-.546.184H40.893a.91.91 0 01-.911-.91v-3.788h-6.994v8.248c4.531 7.849 9.063 15.694 13.592 23.542l2.884-4.992a.906.906 0 011.577.007c4.276 7.409 8.556 14.821 12.837 22.23a.907.907 0 01-.334 1.24.876.876 0 01-.453.125H.911a.91.91 0 01-.755-1.418l9.386-16.253zm37.282 2.268l3.426 2.424 3.427-2.424-3.427-5.935-3.426 5.935zm-5.02-34.997v2.877h14.892l-2.431-3.232a.909.909 0 01-.01-1.102l2.44-3.245h-6.08v3.791a.91.91 0 01-.91.91h-7.902zm-8.816-1.822h15.806V3.01H32.988v7.582z" fill="#13AD89"/></g><defs><clipPath id="clip0"><path fill="#fff" d="M0 0h64v64H0z"/></clipPath></defs></svg>