<svg width="58" height="64" fill="none" xmlns="http://www.w3.org/2000/svg"><path d="M10.677 10.711V6.885a6.85 6.85 0 012.02-4.862A6.866 6.866 0 0117.558 0h23.928a6.86 6.86 0 014.862 2.023 6.853 6.853 0 012.023 4.862v6.973a.938.938 0 11-1.874 0V6.885c0-1.378-.567-2.63-1.474-3.536a4.978 4.978 0 00-3.537-1.475h-.47v2.708a3.189 3.189 0 01-3.183 3.181H21.212a3.189 3.189 0 01-3.182-3.181V1.873h-.472a4.988 4.988 0 00-3.536 1.474 4.99 4.99 0 00-1.47 3.537v3.826h12.497c.882 0 1.683.362 2.264.943.578.581.94 1.382.94 2.26v3.52a.938.938 0 11-1.875 0v-3.52c0-.36-.153-.694-.393-.935-.241-.24-.57-.39-.936-.39H3.343c-.365 0-.695.15-.936.39-.24.241-.393.574-.393.936V25.2c0 .365.153.695.393.936.241.24.57.393.936.393H16.14c.518 0 .936.418.936.935v3.388l4.042-4.047a.945.945 0 01.67-.276h3.26c.365 0 .695-.153.935-.393a1.32 1.32 0 00.394-.936v-3.518a.938.938 0 111.874 0V25.2a3.208 3.208 0 01-3.203 3.204h-2.874l-5.371 5.371a.932.932 0 01-1.325 0 .925.925 0 01-.277-.663v-4.709h-2.65v9.334a.937.937 0 11-1.874 0v-9.334H3.342A3.207 3.207 0 01.14 25.2V13.915c0-.879.361-1.68.939-2.261a3.196 3.196 0 012.264-.943h7.334zm25.555 23.022a.938.938 0 010-1.874h15.144a.937.937 0 110 1.874H36.232zm0 4.844a.938.938 0 010-1.875h7.572a.938.938 0 110 1.875h-7.572zM6.624 18.075a.937.937 0 110-1.874h15.144a.938.938 0 110 1.874H6.624zm0 4.843a.937.937 0 110-1.874h15.144a.938.938 0 110 1.874H6.624zm24.998 10.177a.938.938 0 11-1.875 0v-3.518c0-.883.362-1.684.943-2.265a3.192 3.192 0 012.26-.939h13.547v-8.266c0-.521.418-.94.935-.94a.94.94 0 01.94.94v8.266h6.285a3.207 3.207 0 013.203 3.203v11.282a3.206 3.206 0 01-3.203 3.204h-6.286v13.057a6.866 6.866 0 01-2.023 4.861A6.857 6.857 0 0141.487 64H17.558a6.863 6.863 0 01-4.86-2.02 6.863 6.863 0 01-2.02-4.861V41.985a.938.938 0 111.874 0V52.36h33.945v-8.299h-2.64v4.713a.938.938 0 01-1.605.66l-5.368-5.373H32.95a3.177 3.177 0 01-2.261-.939 3.196 3.196 0 01-.943-2.264v-3.515a.938.938 0 111.875 0v3.515a1.333 1.333 0 001.329 1.329h4.319c.24 0 .482.092.662.276l4.05 4.047v-3.384a.94.94 0 01.936-.94h11.739a1.332 1.332 0 001.329-1.328V29.576c0-.365-.15-.695-.39-.935a1.32 1.32 0 00-.94-.393H32.952c-.365 0-.695.148-.936.393a1.32 1.32 0 00-.393.935v3.519zm-6.25 26.022a.938.938 0 010-1.875h8.301a.938.938 0 010 1.875h-8.302zM39.14 1.874H19.904v2.708c0 .715.592 1.307 1.308 1.307h16.621c.72 0 1.308-.592 1.308-1.308V1.875zm7.356 52.36H12.552v2.885c0 1.374.563 2.626 1.47 3.536a4.996 4.996 0 003.537 1.47h23.928a4.99 4.99 0 003.536-1.47 5.006 5.006 0 001.474-3.536v-2.885z" fill="#13AD89"/></svg>