<svg width="64" height="64" fill="none" xmlns="http://www.w3.org/2000/svg"><path d="M3.423 39.26a4.11 4.11 0 00.96 1.495 4.104 4.104 0 002.91 1.212 4.11 4.11 0 002.908-1.212 4.11 4.11 0 001.212-2.909v-2.292a4.723 4.723 0 01-2.225-.361 7.67 7.67 0 01-.192.758c-.294.956-.786 1.828-1.566 2.455-.79.638-1.838 1.007-3.228.936a7.023 7.023 0 01-.78-.082zm24.286-6.14h8.242v-2.59h-6.346c-.521 0-.996.216-1.34.56a1.882 1.882 0 00-.556 1.335v.695zm8.242 1.874h-8.242v2.852a4.11 4.11 0 001.212 2.91 4.098 4.098 0 005.818 0 4.11 4.11 0 001.212-2.91v-2.852zm25.69 6.258a4.47 4.47 0 011.31 1.055A4.391 4.391 0 0164 45.157v6.32a.938.938 0 01-1.874 0v-6.32a2.53 2.53 0 00-.603-1.641 2.576 2.576 0 00-1.297-.822 5.936 5.936 0 01-3.515 1.148 5.957 5.957 0 01-3.621-1.223 1.714 1.714 0 00-1.19.677l-5.036 6.669a.942.942 0 01-.747.375h-6.453a1.721 1.721 0 00-1.729 1.726c0 .478.195.91.507 1.222.312.312.744.507 1.222.507h7.707c.308 0 .546-.032.84-.18.546-.274 1.056-1.103 1.428-1.599l3.334-4.411a.934.934 0 111.492 1.127l-3.171 4.202v8.17h10.832v-5.382a.937.937 0 011.874 0v6.322a.934.934 0 01-.935.935H.939A.938.938 0 010 62.044v-6.322a.938.938 0 011.874 0v5.383H12.71v-8.171l-3.175-4.202a.934.934 0 01.185-1.311.934.934 0 011.31.184l3.26 4.316c.298.393.596.79.893 1.187.17.223.38.393.61.506.258.131.5.181.783.181h7.763a1.72 1.72 0 001.726-1.73c0-.474-.192-.906-.503-1.222a1.733 1.733 0 00-1.223-.503h-6.456a.936.936 0 01-.747-.375L12.1 43.296a1.733 1.733 0 00-1.19-.677 5.968 5.968 0 01-7.136.078 2.538 2.538 0 00-1.9 2.459v6.322a.938.938 0 01-1.874 0v-6.322c0-1.094.407-2.104 1.076-2.88a4.514 4.514 0 011.287-1.024 5.945 5.945 0 01-1.067-3.405v-5.422c0-1.038.422-1.98 1.106-2.664a3.764 3.764 0 012.66-1.106h4.455a3.772 3.772 0 013.77 3.77v5.422a5.956 5.956 0 01-.971 3.263c.506.255.935.606 1.279 1.06l4.752 6.292H22.1V44.66c0-1.077.57-2.051 1.495-2.877.716-.638 1.658-1.194 2.7-1.633a5.953 5.953 0 01-.46-2.303v-5.422a3.772 3.772 0 013.77-3.77h7.285a.94.94 0 01.939.94v8.252c0 .768-.149 1.506-.415 2.186 1.12.44 2.133 1.006 2.899 1.665.981.843 1.587 1.85 1.587 2.962v3.802h3.753l4.751-6.293c.351-.46.79-.815 1.283-1.055a5.95 5.95 0 01-.974-3.267v-5.422a3.772 3.772 0 013.77-3.77h4.454a3.772 3.772 0 013.77 3.77v5.422a5.973 5.973 0 01-1.067 3.405zm-1.064-1.992c-.27.043-.531.071-.78.082-1.385.07-2.434-.298-3.224-.936-.783-.627-1.276-1.498-1.57-2.455a7.645 7.645 0 01-.188-.758 4.74 4.74 0 01-2.228.361v2.292a4.11 4.11 0 001.212 2.91 4.112 4.112 0 002.912 1.211 4.11 4.11 0 002.91-1.212c.418-.418.747-.928.956-1.495zm-7.99-5.584c1.25.177 2.165-.55 2.328-.691.184-.156.358-.252.61-.262a.933.933 0 01.977.89c.032.609.117 1.225.29 1.788.192.628.493 1.18.95 1.549.45.361 1.085.567 1.967.524.34-.017.712-.07 1.123-.163v-4.886c0-.52-.216-.992-.56-1.336a1.887 1.887 0 00-1.335-.56h-4.454c-.521 0-.993.216-1.336.56-.344.344-.56.815-.56 1.336v1.251zm-41.174 0v-1.25c0-.522-.212-.993-.556-1.337a1.895 1.895 0 00-1.34-.56H5.064c-.517 0-.992.217-1.335.56a1.883 1.883 0 00-.557 1.336v4.886c.408.093.78.146 1.12.163.882.043 1.517-.163 1.966-.524.458-.368.759-.921.954-1.548.173-.564.258-1.18.287-1.79a.935.935 0 01.978-.89c.24.012.425.1.602.256.131.117 1.06.879 2.335.698zm15.885 8.086c-.978.379-1.842.86-2.46 1.414-.534.474-.864.985-.864 1.484v3.802h.365c.992 0 1.896.404 2.548 1.056a3.604 3.604 0 01.613 4.277h9a3.601 3.601 0 01-.44-1.73 3.59 3.59 0 011.057-2.547 3.59 3.59 0 012.547-1.056h.362V44.66c0-.517-.355-1.048-.929-1.541-.673-.578-1.608-1.077-2.65-1.456a5.978 5.978 0 01-9.149.1zM7.813 7.962a.937.937 0 010-1.874h17.355a.938.938 0 010 1.874H7.813zm0 9.865a.937.937 0 01-.935-.94c0-.517.418-.938.935-.938h8.678a.94.94 0 01.939.939.94.94 0 01-.94.939H7.814zm0-4.933a.938.938 0 010-1.874h17.355a.938.938 0 010 1.874H7.813zM26.13 22.89a2.62 2.62 0 002.473 1.733h5.51c.517 0 .935.418.935.939a.934.934 0 01-.935.935h-5.51a4.48 4.48 0 01-3.193-1.332 4.556 4.556 0 01-1.226-2.275H11.112l-4.245 4.245a.938.938 0 01-1.605-.659v-3.664a5.648 5.648 0 01-3.076-1.59 5.653 5.653 0 01-1.668-4.015V6.704c0-1.562.637-2.983 1.668-4.014a5.667 5.667 0 014.015-1.67h20.58c1.566 0 2.987.642 4.014 1.67a5.665 5.665 0 011.67 4.014v1.737h15.923c1.244 0 2.37.506 3.19 1.325a4.497 4.497 0 011.325 3.189v9.028a4.5 4.5 0 01-1.326 3.19 4.52 4.52 0 01-2.253 1.225v3.685a.934.934 0 01-1.599.663l-4.248-4.248h-5.12a.938.938 0 110-1.875h5.51c.262 0 .496.107.666.28l2.916 2.916v-2.257a.94.94 0 01.94-.939c.722 0 1.385-.298 1.863-.776a2.63 2.63 0 00.776-1.864v-9.028a2.63 2.63 0 00-.776-1.864 2.637 2.637 0 00-1.864-.776H32.464v6.892a5.653 5.653 0 01-1.669 4.014 5.653 5.653 0 01-4.014 1.67h-.652zm-15.407-1.874h16.059a3.793 3.793 0 002.69-1.12 3.8 3.8 0 001.119-2.69V6.705a3.8 3.8 0 00-1.12-2.689 3.792 3.792 0 00-2.69-1.12H6.2a3.793 3.793 0 00-2.689 1.12 3.799 3.799 0 00-1.12 2.69v10.502a3.8 3.8 0 001.12 2.69 3.797 3.797 0 002.69 1.119c.517 0 .935.422.935.939v2.257l2.923-2.92a.93.93 0 01.663-.276zM49.42 55.669H14.585v5.436h34.834v-5.436z" fill="#13AD89"/></svg>