<svg width="64" height="64" fill="none" xmlns="http://www.w3.org/2000/svg"><g clip-path="url(#clip0)"><path d="M57.122 13.566V10.1a1.51 1.51 0 00-.446-1.067 1.503 1.503 0 00-1.067-.446H52.5c-.419 0-.794.17-1.07.446a1.509 1.509 0 00-.444 1.067v3.465h6.137zm-39.19 16.848a.94.94 0 010-1.325.933.933 0 011.326 0l.854.854 2.37-2.374a.939.939 0 011.326 1.329l-3.033 3.033a.939.939 0 01-1.325 0l-1.517-1.517zm35.183-10.817a.938.938 0 111.874 0v19.676a.938.938 0 11-1.874 0V19.597zm-14.78 31.72h5.77v-4.022h-5.77v4.021zm6.704 1.874H14.464a.94.94 0 01-.94-.94v-5.895c0-.518.423-.936.94-.936h6.708v-5.343c0-.517.418-.935.935-.935h7.646c.518 0 .936.418.936.935v1.665h6.707a.94.94 0 01.94.94v2.738h6.703c.518 0 .94.418.94.936v5.896a.94.94 0 01-.94.939zm-14.35-1.875h5.769V43.62h-5.769v7.696zm-7.643 0h5.768v-10.3h-5.768v10.3zm-7.647 0h5.773v-4.021h-5.773v4.021zm-3.954-32.658h37.662V10.1c0-.932.383-1.779.996-2.392a3.38 3.38 0 012.395-.996h3.111c.932 0 1.78.383 2.392.996.613.613.996 1.46.996 2.392v8.557h4.068c.517 0 .935.421.935.939V56.35a.935.935 0 01-.935.936H37.109a.938.938 0 010-1.874h25.017v-34.88h-3.13v6.777a.938.938 0 11-1.874 0V15.44h-6.137v27.99h6.137V31.56a.938.938 0 111.875 0v12.805c0 .227-.06.34-.16.532L54.89 52.67a.933.933 0 01-1.672.004l-3.962-7.796c-.092-.188-.149-.294-.149-.514V20.532H11.445v7.094a.938.938 0 11-1.875 0V9.346a4.972 4.972 0 00-2.66-.758 5.03 5.03 0 00-5.036 5.035v32.024l.149-.156a6.89 6.89 0 014.886-2.023 7 7 0 012.197.358c.156.053.312.113.464.177V31.874a.938.938 0 111.875 0v13.738a.936.936 0 01-1.502.744 5.025 5.025 0 00-3.033-1.013 5.03 5.03 0 00-5.036 5.035 5.03 5.03 0 005.035 5.035h25.956a.938.938 0 010 1.874H6.909a6.891 6.891 0 01-4.886-2.023A6.885 6.885 0 010 50.377V13.623a6.89 6.89 0 012.023-4.887A6.89 6.89 0 016.91 6.713a6.95 6.95 0 014.117 1.36c.251.17.418.458.418.784v9.8zm45.09 26.645H51.57l2.484 4.887 2.48-4.887zm-12.53-20.965a.938.938 0 010 1.874H31.316a.938.938 0 010-1.874h12.689zm-5.276 8.95c.52 0 .939.418.939.935a.938.938 0 01-.94.94h-7.412a.937.937 0 010-1.875h7.413zm5.276-4.475c.517 0 .935.418.935.939a.935.935 0 01-.935.935H31.316a.935.935 0 01-.935-.935c0-.521.418-.94.935-.94h12.689zM15.502 23.44h10.74c.517 0 .935.422.935.94v10.74a.938.938 0 01-.935.939h-10.74a.938.938 0 01-.939-.94V24.38c0-.517.418-.939.94-.939zm9.801 1.878h-8.865v8.866h8.865v-8.866z" fill="#13AD89"/></g><defs><clipPath id="clip0"><path fill="#fff" d="M0 0h64v64H0z"/></clipPath></defs></svg>