<svg width="163" height="163" fill="none" xmlns="http://www.w3.org/2000/svg"><path d="M56.373 72.168h-4.075v18.158h4.075V72.168zm0-32.298h-4.075v18.158h4.075V39.87z" fill="#69C0AC"/><path d="M108.664 163L163 130.384V0l-29.633 19.152c-6.455-5.827-14.923-9.47-24.304-9.47-9.56 0-18.182 3.765-24.686 9.788L54.18 0 0 27.604V163l54.336-33.871L108.664 163zm.407-149.243c17.841 0 32.348 14.515 32.348 32.348 0 2.934-.391 5.843-1.174 8.647a33.808 33.808 0 01-1.084 3.252l-.847 1.964-29.243 54.042-29.054-53.66-1.043-2.363a33.305 33.305 0 01-1.085-3.227 32.54 32.54 0 01-1.173-8.647c.008-17.84 14.515-32.356 32.355-32.356zM4.075 155.657V30.097l48.223-24.57V25.72h4.075V6.267L81.55 22.494c-5.477 6.373-8.908 14.556-8.908 23.619a36.581 36.581 0 002.535 13.382l1.1 2.51 32.779 60.579 32.828-60.66.995-2.266a35.262 35.262 0 001.279-3.806 36.524 36.524 0 001.32-9.74c0-9.233-3.545-17.563-9.209-23.985L158.925 7.49v120.587l-47.816 28.705v-20.066h-4.075v20.457l-50.546-31.508-.114-.074v-21.124h-4.076v21.116l-.122.082-48.101 29.992z" fill="#69C0AC"/><path d="M106.596 63.694l-.978-10.562.326-.326c4.173-.087 7.368-.956 9.585-2.608 2.26-1.652 3.39-3.89 3.39-6.716 0-2.39-.869-4.39-2.608-5.998-1.738-1.652-4.042-2.478-6.911-2.478-4.39 0-8.346 2.043-11.866 6.129l-3.326-3.195c4.173-5.042 9.281-7.563 15.322-7.563 4.347 0 7.868 1.217 10.563 3.651 2.695 2.434 4.042 5.564 4.042 9.389 0 3.868-1.26 6.911-3.781 9.128-2.521 2.173-5.781 3.542-9.78 4.108l-.652 7.041h-3.326zm-1.369 12.91v-6.846h5.999v6.846h-5.999z" fill="#69C0AC"/></svg>