<svg width="66" height="66" fill="none" xmlns="http://www.w3.org/2000/svg"><g clip-path="url(#clip0)"><path d="M26.33 1.436h28.088a2 2 0 012 2V33M26.33 1.436L9.582 17.942M26.33 1.436v14.506a2 2 0 01-2 2H9.582m0 0v44.622a2 2 0 002 2h42.836a2 2 0 002-2v-6.012" stroke="#13AD89" stroke-width="1.6" stroke-linecap="round" stroke-linejoin="round"/><path d="M31.903 50.392a.94.94 0 01-.94-.94v-7.751a2 2 0 012-2h2.216c1.242 0 2.23.325 2.963.977.733.652 1.1 1.527 1.1 2.627 0 1.15-.408 2.047-1.222 2.688-.805.642-1.823.962-3.055.962h-2.123v2.497a.94.94 0 01-.939.94zm.94-5.132h2.183c.703 0 1.263-.178 1.68-.535.418-.356.627-.824.627-1.405 0-.61-.21-1.079-.627-1.405-.407-.336-.967-.504-1.68-.504h-2.184v3.849zm12.613 5.132a2 2 0 01-2-2V41.7a2 2 0 012-2h1.987c1.67 0 3.034.509 4.093 1.527 1.059 1.008 1.588 2.28 1.588 3.818 0 1.527-.534 2.8-1.604 3.818-1.058 1.019-2.418 1.528-4.077 1.528h-1.986zm-.121-1.711h2.108c1.11 0 2.006-.336 2.688-1.008.682-.682 1.023-1.558 1.023-2.627 0-1.059-.341-1.93-1.023-2.611-.682-.683-1.578-1.024-2.688-1.024h-2.108v7.27zm13.298 1.711a.94.94 0 01-.939-.94v-7.751a2 2 0 012-2h5.102a.855.855 0 110 1.71h-5.223v2.917h4.536a.855.855 0 010 1.71h-4.536v3.414a.94.94 0 01-.94.94z" fill="#13AD89"/></g><defs><clipPath id="clip0"><path fill="#fff" transform="translate(.418 .418)" d="M0 0h65.164v65.164H0z"/></clipPath></defs></svg>