<svg width="66" height="66" fill="none" xmlns="http://www.w3.org/2000/svg"><g clip-path="url(#clip0)"><path d="M26.33 1.436h28.088a2 2 0 012 2V33M26.33 1.436L9.582 17.942M26.33 1.436v14.506a2 2 0 01-2 2H9.582m0 0v44.622a2 2 0 002 2h42.836a2 2 0 002-2v-6.012" stroke="#13AD89" stroke-width="1.6" stroke-linecap="round" stroke-linejoin="round"/><path d="M26.553 50.31a.873.873 0 01-.71-1.382l2.906-4.056-2.73-3.833a.899.899 0 111.47-1.034l2.39 3.447 2.412-3.46A.874.874 0 1133.72 41l-2.741 3.842 2.87 4.045a.9.9 0 11-1.474 1.035l-2.542-3.66-2.565 3.674a.873.873 0 01-.715.373zm12.543 0a2 2 0 01-2-2v-7.753a.94.94 0 111.878 0v7.041a1 1 0 001 1h3.766a.855.855 0 010 1.711h-4.644zm11.504.152c-1.411 0-2.674-.392-3.79-1.177-.391-.274-.426-.824-.119-1.19.318-.378.88-.416 1.292-.143.854.563 1.74.845 2.662.845.58 0 1.038-.122 1.374-.366.347-.255.52-.591.52-1.008 0-.398-.163-.713-.489-.947-.326-.245-.967-.479-1.924-.703-1.243-.295-2.149-.667-2.719-1.115-.56-.458-.84-1.156-.84-2.092 0-.916.341-1.66 1.023-2.23.682-.58 1.558-.87 2.627-.87 1.176 0 2.241.288 3.194.864.402.243.473.779.201 1.162-.287.405-.848.486-1.282.245-.726-.405-1.44-.607-2.143-.607-.54 0-.968.122-1.283.367a1.143 1.143 0 00-.458.931c0 .418.168.744.504.978.346.224 1.023.458 2.03.702 1.182.286 2.047.667 2.597 1.146.56.478.84 1.15.84 2.016 0 .987-.351 1.766-1.054 2.336-.702.57-1.624.856-2.764.856zm6.833-.152a.873.873 0 01-.71-1.382l2.906-4.056-2.73-3.833a.899.899 0 111.471-1.034l2.39 3.447 2.411-3.46A.874.874 0 1164.6 41l-2.741 3.842 2.87 4.045a.9.9 0 11-1.474 1.035l-2.541-3.66-2.565 3.674a.873.873 0 01-.716.373z" fill="#13AD89"/></g><defs><clipPath id="clip0"><path fill="#fff" transform="translate(.418 .418)" d="M0 0h65.164v65.164H0z"/></clipPath></defs></svg>