<svg width="66" height="66" fill="none" xmlns="http://www.w3.org/2000/svg"><g clip-path="url(#clip0)"><path d="M26.33 1.436h28.088a2 2 0 012 2V33M26.33 1.436L9.582 17.942M26.33 1.436v14.506a2 2 0 01-2 2H9.582m0 0v44.622a2 2 0 002 2h42.836a2 2 0 002-2v-6.012" stroke="#13AD89" stroke-width="1.6" stroke-linecap="round" stroke-linejoin="round"/><path d="M22.781 50.31a2 2 0 01-2-2v-6.692a2 2 0 012-2h1.986c1.67 0 3.035.51 4.093 1.527 1.06 1.008 1.589 2.281 1.589 3.819 0 1.527-.535 2.8-1.604 3.818-1.059 1.018-2.418 1.527-4.078 1.527h-1.986zm-.121-1.711h2.107c1.11 0 2.006-.336 2.688-1.008.683-.683 1.024-1.558 1.024-2.627 0-1.06-.341-1.93-1.024-2.612-.682-.682-1.578-1.023-2.688-1.023H22.66v7.27zm19.033.274c-1.059 1.08-2.398 1.62-4.017 1.62-1.619 0-2.952-.535-4.001-1.604-1.049-1.07-1.573-2.378-1.573-3.925 0-1.528.53-2.83 1.588-3.91 1.06-1.08 2.398-1.62 4.017-1.62 1.619 0 2.953.535 4.001 1.605 1.05 1.069 1.573 2.377 1.573 3.925 0 1.527-.529 2.83-1.588 3.91zm-6.598-1.206c.693.733 1.563 1.1 2.612 1.1 1.049 0 1.909-.367 2.581-1.1.682-.733 1.023-1.634 1.023-2.703 0-1.06-.346-1.955-1.038-2.688-.683-.744-1.548-1.115-2.597-1.115-1.048 0-1.914.366-2.596 1.1-.672.732-1.008 1.634-1.008 2.703 0 1.059.341 1.96 1.023 2.703zm15.267 2.825c-1.548 0-2.84-.53-3.88-1.588-1.038-1.07-1.557-2.383-1.557-3.94 0-1.548.52-2.856 1.558-3.925 1.038-1.07 2.357-1.604 3.955-1.604.927 0 1.71.142 2.352.428.4.175.785.398 1.154.668.4.293.423.864.098 1.238-.342.394-.938.417-1.371.126-.727-.49-1.476-.734-2.248-.734-1.018 0-1.863.366-2.535 1.1-.662.732-.993 1.634-.993 2.703 0 1.059.336 1.96 1.008 2.703.672.733 1.512 1.1 2.52 1.1.611 0 1.15-.112 1.619-.336.26-.13.524-.296.794-.498.383-.288.925-.284 1.262.056.335.34.344.89-.021 1.197a5.916 5.916 0 01-1.287.833c-.672.316-1.481.473-2.428.473zm6.899-.182a.873.873 0 01-.71-1.382l2.906-4.056-2.73-3.833a.899.899 0 111.471-1.034l2.39 3.447 2.411-3.46A.874.874 0 1164.428 41l-2.741 3.842 2.87 4.045a.9.9 0 11-1.474 1.035l-2.541-3.66-2.566 3.674a.872.872 0 01-.715.373z" fill="#13AD89"/></g><defs><clipPath id="clip0"><path fill="#fff" transform="translate(.418 .418)" d="M0 0h65.164v65.164H0z"/></clipPath></defs></svg>