<svg width="96" height="96" fill="none" xmlns="http://www.w3.org/2000/svg"><path d="M94.594 93.188H62.525v-13.32a9.36 9.36 0 002.527.348h21.56c5.176 0 9.388-4.211 9.388-9.388 0-.776-.63-1.406-1.406-1.406h-3.88L79.667 48.956a5.632 5.632 0 001.818-4.145 5.66 5.66 0 00-4.247-5.472V16.697h3.492v.785c0 1.818 2.812 1.818 2.812 0v-.785h6.938c4.84 0 4.848-7.543 0-7.543h-6.938V7.74c0-1.818-2.812-1.818-2.812 0v1.414h-3.492V7.74c0-1.818-2.812-1.818-2.812 0v1.414H62.808v-2.95a5.021 5.021 0 00-5.015-5.017 4.989 4.989 0 00-3.05 1.037A5.016 5.016 0 0050.577 0a5.016 5.016 0 00-4.166 2.225 4.988 4.988 0 00-3.05-1.037 5.019 5.019 0 00-4.386 2.588 4.986 4.986 0 00-2.829-.876 5.021 5.021 0 00-5.015 5.015v1.239h-9.557V7.74c0-1.818-2.812-1.818-2.812 0v1.414H15.27V7.74c0-1.818-2.812-1.818-2.812 0v1.414H5.52c-4.84 0-4.848 7.543 0 7.543h6.938v.785c0 1.819 2.812 1.819 2.812 0v-.785h3.492v22.642a5.66 5.66 0 00-4.247 5.472c0 1.636.701 3.112 1.818 4.145L5.286 69.422h-3.88c-.776 0-1.406.63-1.406 1.406 0 5.177 4.211 9.388 9.388 9.388h21.56a9.36 9.36 0 002.527-.348v13.32H1.406a1.406 1.406 0 000 2.812h93.188a1.406 1.406 0 000-2.813zm-7.076-23.766H84.69a1.406 1.406 0 000 2.812h8.346c-.646 2.953-3.28 5.17-6.424 5.17h-21.56c-3.143 0-5.779-2.217-6.424-5.17h18.576v-2.812H64.146l10.325-19.13a5.641 5.641 0 002.722 0l10.325 19.13zm-51.23-18.946h23.425v6.486H36.287v-6.486zm42.385-5.665a2.842 2.842 0 01-5.681 0 2.842 2.842 0 015.68 0zm-4.247-5.472a5.66 5.66 0 00-4.247 5.472c0 1.636.7 3.112 1.818 4.145l-9.472 17.547V49.07c0-.777-.63-1.407-1.406-1.407h-1.233c-.12-2.785.774-5.487 2.768-7.478 4.456-4.45 8.195-8.94 8.195-15.63V18.89c0-.786-.182-1.53-.506-2.192h4.083V39.34zM90.48 11.967c1.239 0 1.239 1.917 0 1.917h-6.938v-1.917h6.938zm-9.75 0v1.917h-3.492v-1.917h3.492zm-6.304 0v1.917l-11.618-.006v-1.911h11.618zM57.793 4c1.214 0 2.203.988 2.203 2.203v7.675h-4.403V6.133A2.204 2.204 0 0157.793 4zm-7.216-1.188c1.215 0 2.203.987 2.203 2.2l-.003 8.923a2.583 2.583 0 00-2.043 2.522c0 1.341.358 2.6.983 3.688-1.443.871-3.343-.197-3.343-1.882V5.013c0-1.214.988-2.2 2.203-2.2zM43.362 4c1.191 0 2.162.95 2.2 2.133v11.2a2.204 2.204 0 01-2.2 2.133 2.206 2.206 0 01-2.203-2.203V6.203c0-1.215.988-2.203 2.203-2.203zm-9.419 3.915c0-1.214.989-2.203 2.203-2.203 1.192 0 2.163.951 2.2 2.133v7.776a2.204 2.204 0 01-2.2 2.133 2.206 2.206 0 01-2.203-2.204V7.915zm-2.812 4.052v1.917h-9.557v-1.917h9.557zM5.52 13.884c-1.24 0-1.24-1.918 0-1.918h6.937v1.918H5.52zm9.75 0v-1.917h3.49v1.917h-3.49zm15.86 2.813v6.569a1.406 1.406 0 002.812 0v-3.211a4.985 4.985 0 002.203.51 4.986 4.986 0 002.828-.875 5.019 5.019 0 004.388 2.588 4.99 4.99 0 003.135-1.105 5.013 5.013 0 007.066 1.116 7.416 7.416 0 004.621 1.611h2.25v.031c-6.136.7-10.918 5.918-10.918 12.232a1.406 1.406 0 002.813 0c0-5.238 4.267-9.499 9.512-9.499.776 0 1.406-.63 1.406-1.406v-2.764c0-.776-.63-1.406-1.406-1.406h-3.657a4.64 4.64 0 01-4.632-4.398c4.133 0 8.266.006 12.4.006a2.202 2.202 0 012.085 2.193v5.667c0 5.924-3.461 9.734-7.371 13.639-2.551 2.548-3.626 5.926-3.593 9.468H38.816c.103-3.135-.944-6.043-2.665-8.634a13.874 13.874 0 01-2.208-7.516 1.406 1.406 0 10-2.812 0c0 3.214.92 6.342 2.66 9.046 1.399 2.165 2.32 4.493 2.212 7.104h-1.122c-.777 0-1.406.63-1.406 1.407v17.433l-9.472-17.547a5.632 5.632 0 001.818-4.145 5.66 5.66 0 00-4.247-5.472V16.697h9.557zM20.168 41.974a2.842 2.842 0 012.84 2.837 2.842 2.842 0 01-5.68 0 2.842 2.842 0 012.84-2.837zm-1.361 8.319a5.645 5.645 0 002.722 0l10.325 19.13H8.482l10.325-19.13zm-9.42 27.11a6.585 6.585 0 01-6.423-5.168h34.408c-.646 2.952-3.28 5.169-6.424 5.169H9.388zm26.9 15.784V78.544a9.383 9.383 0 004.049-7.716c0-.776-.63-1.406-1.406-1.406h-2.643v-9.648h23.426v9.648H57.07c-.777 0-1.407.63-1.407 1.406a9.383 9.383 0 004.049 7.716v14.644H36.287z" fill="#69C0AC"/></svg>