<svg width="38" height="51" fill="none" xmlns="http://www.w3.org/2000/svg"><path d="M30.565 36.195h-3.787l-1.17-1.165v-2.262c3.944-2.28 6.61-6.523 6.61-11.381v-7.404c0-2.154-.506-4.187-1.384-6.011a.825.825 0 00-.089-.184C28.446 3.18 23.683 0 18.175 0c-7.741 0-14.04 6.272-14.04 13.983v1.645c0 .034.016.065.02.099a.793.793 0 00.032.16.78.78 0 00.066.14.75.75 0 00.087.129c.034.04.072.073.114.106a.802.802 0 00.13.087.752.752 0 00.153.056c.033.01.06.03.094.035.326.05.637.09.952.132v4.814c0 4.858 2.665 9.1 6.608 11.38v2.263l-1.166 1.164H7.436C3.336 36.194 0 39.517 0 43.6v5.756A1.65 1.65 0 001.654 51h34.695A1.65 1.65 0 0038 49.355v-5.757c0-4.082-3.335-7.403-7.435-7.403zm0 1.645c3.188 0 5.783 2.584 5.783 5.758v5.757H23.13l3.966-5.265c.021-.029.027-.063.045-.094a.811.811 0 00.071-.149.711.711 0 00.03-.153.74.74 0 00.008-.155.758.758 0 00-.03-.155.77.77 0 00-.05-.145.746.746 0 00-.092-.137c-.021-.029-.033-.062-.058-.088l-1.07-1.063 2.721-2.707a.82.82 0 000-1.163l-.242-.241h2.136zM20.207 49.355l2.128-5.448v-.002l2.758-7.061.755.752.006.005 1.065 1.062-2.72 2.707a.82.82 0 000 1.163l1.145 1.14-4.279 5.682h-.858zm-3.272 0l-4.28-5.681 1.146-1.141a.82.82 0 000-1.163l-2.72-2.707 1.07-1.066.756-.753 2.758 7.062 2.128 5.449h-.858zM19 37.133l1.193.656-.748.874h-.89l-.748-.874L19 37.133zm-.278 3.175h.557l1.4 3.302L19 47.909l-1.679-4.3 1.4-3.301zm2.817 1.1l-.754-1.776.884-1.033.796.437-.926 2.372zM16.33 38.6l.884 1.033-.754 1.776-.926-2.372.796-.437zm14.234-24.616v1.05c-1.217-1.275-2.316-2.011-3.38-2.382l2.613-2.901c.487 1.322.767 2.744.767 4.233zM18.175 1.645a12.41 12.41 0 0110.89 6.456l-3.819 4.24c-1.384.022-2.797.493-4.43 1.045-3.099 1.05-7.268 2.46-14.192 1.64l-.015-.002h-.005c-.266-.03-.544-.071-.818-.11v-.931c0-6.803 5.558-12.338 12.39-12.338zM7.436 21.387v-4.624c6.69.62 10.813-.77 13.913-1.82 3.866-1.308 5.666-1.904 9.217 2.618v3.826c0 6.35-5.188 11.517-11.565 11.517S7.435 27.736 7.435 21.387zM19 34.549c1.753 0 3.425-.35 4.956-.97v1.638l-.886 2.27-3.67-2.015c-.027-.014-.056-.014-.084-.026a.842.842 0 00-.316-.065.756.756 0 00-.315.065c-.028.012-.058.013-.085.026l-3.67 2.016-.886-2.271V33.58c1.531.62 3.203.969 4.956.969zm-11.564 3.29h2.136l-.243.242a.82.82 0 000 1.163l2.72 2.707-1.068 1.064c-.025.025-.037.06-.059.088a.736.736 0 00-.09.136.822.822 0 00-.052.146.766.766 0 00-.03.155.746.746 0 00.009.154.773.773 0 00.03.154c.017.052.043.1.07.15.018.03.024.064.046.093l3.965 5.264H1.653v-5.756c0-3.176 2.594-5.76 5.783-5.76z" fill="#5E6A6E"/></svg>