<svg width="37" height="51" fill="none" xmlns="http://www.w3.org/2000/svg"><path d="M29.262 35.953l-4.18-.002v-3.482c3.991-2.316 6.688-6.629 6.688-11.567V10.87c0-3.404-2.559-6.216-5.852-6.63V.836A.836.836 0 0025.082 0h-8.36C10.266 0 5.015 5.25 5.015 11.705v9.197c0 4.938 2.698 9.25 6.689 11.567v3.483h-4.18C3.376 35.952 0 39.327 0 43.476v5.852C0 50.25.75 51 1.674 51h33.442c.922 0 1.672-.75 1.672-1.672v-5.85c0-4.15-3.375-7.526-7.525-7.526zm-12.54-34.28h7.524v3.345c0 .462.374.836.836.836a5.021 5.021 0 015.016 5.016v2.997l-1.917-1.917c-.016-.016-.037-.022-.053-.036a.81.81 0 00-.14-.093.843.843 0 00-.141-.067.81.81 0 00-.154-.03.865.865 0 00-.16-.01c-.052.004-.1.018-.15.03a.787.787 0 00-.162.057c-.019.01-.041.01-.06.021-.04.025-4.056 2.391-8.768 2.391-4.712 0-8.726-2.366-8.767-2.39-.019-.011-.04-.011-.06-.021a.806.806 0 00-.16-.056.875.875 0 00-.152-.03.85.85 0 00-.158.008.798.798 0 00-.154.03.854.854 0 00-.142.067.79.79 0 00-.138.091c-.018.015-.039.02-.056.037L6.69 13.867v-2.162c0-5.532 4.5-10.033 10.032-10.033zM6.688 20.902V16.23l2.656-2.656c1.348.7 4.898 2.31 9.048 2.31 4.151 0 7.7-1.61 9.048-2.31l2.657 2.656v4.671c0 6.455-5.25 11.705-11.705 11.705-6.454 0-11.704-5.25-11.704-11.704zM18.393 34.28a13.3 13.3 0 005.017-.985v3.046l-1.732 1.153-2.91-1.455c-.018-.009-.038-.007-.058-.016a.82.82 0 00-.163-.043c-.052-.01-.102-.02-.154-.02-.051 0-.102.01-.153.02a.715.715 0 00-.163.044c-.018.008-.039.006-.057.015l-2.91 1.456-1.733-1.154v-3.046c1.551.63 3.242.984 5.016.984zM7.525 37.623h4.764l2.297 1.53c.004.004.01.005.014.007a.85.85 0 00.158.075c.02.007.04.019.06.026a.898.898 0 00.206.03c.009 0 .017.003.025.003h.003a.842.842 0 00.36-.085c.003-.003.008-.001.013-.004l2.968-1.484 2.971 1.484c.004.003.01.001.013.004a.85.85 0 00.359.085h.002c.009 0 .018-.003.026-.003a.885.885 0 00.204-.03c.022-.007.042-.02.064-.028a.824.824 0 00.154-.072l.016-.007 2.3-1.532 4.76.002a5.86 5.86 0 015.853 5.852v5.85H1.673v-5.85a5.86 5.86 0 015.852-5.853z" fill="#5E6A6E"/></svg>