<svg width="25" height="24" fill="none" xmlns="http://www.w3.org/2000/svg"><path d="M.506 8.447v15.045h23.036V9.504" stroke="#13AD89"/><path d="M23.542 10H2.019A1.513 1.513 0 01.506 8.487v-.042a1.47 1.47 0 011.471-1.471v0" stroke="#13AD89"/><path d="M23.541 9.774V6.475a2 2 0 00-2-2H4.097a2 2 0 00-2 2v3.3" stroke="#13AD89"/><path d="M23.44 5.86l-.589-3.246a2 2 0 00-2.325-1.61L3.39 4.113a2 2 0 00-1.606 2.352l.1.508m21.192 7.436h-3.371a2.365 2.365 0 00-2.365 2.365v0a2.365 2.365 0 002.365 2.365h3.371M16.11 10a3.29 3.29 0 10-6.58 0h6.58z" stroke="#13AD89"/><path d="M4.199 8.845v-.627a2 2 0 012-2h1.319m14 2.627v-.627a2 2 0 00-2-2h-1.319" stroke="#13AD89"/></svg>