<svg width="78" height="77" fill="none" xmlns="http://www.w3.org/2000/svg"><path d="M68.858 64.8H72a4 4 0 004-4V6.45a4 4 0 00-4-4H5.715a4 4 0 00-4 4V60.8a4 4 0 004 4h3.143m29.999-10.033v2.867M2.43 18.217h72.857M9.573 10.334h24.285m14.643 0h3.214m5 0h2.857m5 0h2.858" stroke="#13AD89" stroke-width="3" stroke-linecap="round" stroke-linejoin="round"/><path d="M17.481 43.78a23.005 23.005 0 00-.299 15.4 22.922 22.922 0 009.479 12.116 22.796 22.796 0 0028.705-3.535 22.99 22.99 0 002.275-28.927 22.86 22.86 0 00-12.475-8.977 22.786 22.786 0 00-15.322.968" stroke="#13AD89" stroke-width="3" stroke-linecap="round" stroke-linejoin="round"/><path d="M29.572 48.317H47.43v6.121a8.929 8.929 0 01-8.928 8.929v0a8.929 8.929 0 01-8.929-8.929v-6.121zm2.858 0h12.142v-2.529a6.071 6.071 0 00-6.07-6.071v0a6.071 6.071 0 00-6.072 6.071v2.529z" stroke="#13AD89" stroke-width="3" stroke-linecap="round" stroke-linejoin="round"/></svg>