<svg width="24" height="24" fill="none" xmlns="http://www.w3.org/2000/svg"><path d="M22 16.92v3a2 2 0 01-2.18 2 19.791 19.791 0 01-8.63-3.07 19.502 19.502 0 01-6-6 19.79 19.79 0 01-3.07-8.67A2 2 0 014.11 2h3a2 2 0 012 1.72c.126.96.36 1.903.7 2.81a2 2 0 01-.45 2.11L8.09 9.91a16 16 0 006 6l1.27-1.27a2 2 0 012.11-.45c.907.338 1.85.573 2.81.7A2 2 0 0122 16.92z" fill="#919DA1"/><path fill-rule="evenodd" clip-rule="evenodd" d="M14.255.912a.8.8 0 01.883-.707 9.8 9.8 0 018.657 8.646.8.8 0 11-1.59.178 8.2 8.2 0 00-7.243-7.234.8.8 0 01-.707-.883zm.01 3.935a.8.8 0 01.938-.632 5.8 5.8 0 014.582 4.582.8.8 0 11-1.57.306 4.2 4.2 0 00-3.318-3.318.8.8 0 01-.632-.938z" fill="#919DA1"/></svg>