<svg width="30" height="31" fill="none" xmlns="http://www.w3.org/2000/svg"><path d="M18.067 6.667a6.667 6.667 0 015.267 5.267m-5.267-10.6a12 12 0 0110.6 10.586m-1.333 10.64v4a2.668 2.668 0 01-2.907 2.667 26.386 26.386 0 01-11.506-4.093 26 26 0 01-8-8A26.387 26.387 0 01.827 5.574a2.667 2.667 0 012.654-2.907h4a2.667 2.667 0 012.666 2.293c.17 1.28.482 2.537.934 3.747a2.666 2.666 0 01-.6 2.813l-1.694 1.694a21.334 21.334 0 008 8l1.694-1.694a2.666 2.666 0 012.813-.6c1.21.452 2.466.765 3.747.933a2.666 2.666 0 012.293 2.707z" stroke="#13AD89" stroke-width="1.6" stroke-linecap="round" stroke-linejoin="round"/></svg>