<svg width="120" height="120" fill="none" xmlns="http://www.w3.org/2000/svg"><g clip-path="url(#clip0)" fill="#13AD89"><path d="M104.704 12.779a30.286 30.286 0 00-23.213-4.02 31.446 31.446 0 00-21.49 17.737A31.456 31.456 0 0038.51 8.76a30.276 30.276 0 00-23.213 4.034A32.103 32.103 0 001.135 33.36C-5.74 65.444 19.79 91.374 45.972 104.953l13.108 6.801a2.005 2.005 0 001.84 0l13.107-6.801c26.183-13.572 51.714-39.509 44.837-71.595a32.11 32.11 0 00-14.16-20.58zm-32.517 88.625L60 107.722l-12.187-6.318C22.94 88.509-1.36 64.082 5.045 34.198a28.138 28.138 0 0112.4-18.031 26.286 26.286 0 0120.166-3.51 27.744 27.744 0 0120.453 20.287 2 2 0 003.872 0 27.744 27.744 0 0120.462-20.287 26.304 26.304 0 0120.157 3.505 28.133 28.133 0 0112.399 18.036c6.404 29.884-17.894 54.31-42.767 67.206z"/><path d="M35.817 20.452a2 2 0 10.898-3.897 22.411 22.411 0 00-5.03-.576c-11.103.248-20.547 8.168-22.726 19.059a2 2 0 103.91.838 19.705 19.705 0 0118.816-15.898c1.391.002 2.777.161 4.132.474zM44 49.977a2 2 0 00-1.999 2 2 2 0 01-4 0 2 2 0 00-3.999 0 6 6 0 0012 0 2 2 0 00-2.001-2zm39.998 0a2 2 0 00-2 2 2 2 0 01-4 0 2 2 0 00-4 0 6 6 0 0012 0 2 2 0 00-2-2zM60 59.976c-11.864 0-12 7.92-12 8a1.98 1.98 0 001.955 1.973 1.95 1.95 0 001.432-.53c.386-.364.607-.869.614-1.4.019-.413.412-4.043 8-4.043 7.587 0 7.978 3.63 7.998 4a2 2 0 104 0c0-.08-.136-8-11.999-8zm-29.413 2.587l-2 1.999a2 2 0 102.828 2.828l2-2a2 2 0 00-2.828-2.828zm8 0l-2 1.999a2 2 0 102.827 2.828l2-2a2 2 0 00-2.827-2.828zm50.826 0a2.001 2.001 0 00-2.828 2.827l2 2a2.001 2.001 0 002.827-2.828l-2-2zm-8.001 0a2 2 0 00-2.827 2.827l2 2a2 2 0 002.827-2.828l-2-2zM12.004 43.977a2 2 0 11-4 0 2 2 0 014 0z"/></g><defs><clipPath id="clip0"><path fill="#fff" d="M0 0h120v120H0z"/></clipPath></defs></svg>