<svg width="95" height="88" fill="none" xmlns="http://www.w3.org/2000/svg"><path d="M78.72 39.983V70a4 4 0 01-4 4h-7.34a4 4 0 00-3.39 1.876l-5.9 9.419a2 2 0 01-3.39 0l-5.9-9.419A4 4 0 0045.41 74H6.176a4 4 0 01-4-4V22a4 4 0 014-4h48.11M88.87 6.218a14.315 14.315 0 00-18.122-1.79 14.396 14.396 0 00-5.76 7.792 14.446 14.446 0 00.474 9.69 14.383 14.383 0 006.494 7.19 14.31 14.31 0 009.565 1.423 14.344 14.344 0 008.295-4.988 14.43 14.43 0 003.257-9.135" stroke="#13AD89" stroke-width="3" stroke-linecap="round" stroke-linejoin="round"/><path d="M79.12 24.4V11.2h-3.59M2.857 21.35L27.5 46.075m35.715-10.75L40 58.617 27.5 46.075m26.429-.358l24.286 24.366M27.5 46.075L2.857 70.8" stroke="#13AD89" stroke-width="3" stroke-linecap="round" stroke-linejoin="round"/></svg>