<svg width="81" height="81" fill="none" xmlns="http://www.w3.org/2000/svg"><g clip-path="url(#clip0)" stroke="#13AD89" stroke-width="1.6" stroke-linecap="round"><path d="M60.5 8.52V6.5a5 5 0 00-5-5h-33a5 5 0 00-5 5v22.901m43 3.842v40.941a5 5 0 01-5 5h-33a5 5 0 01-5-5V53.957m.076 11.837h42.929"/><circle cx="39.366" cy="72.5" r="3.801"/><path d="M1.5 34.658a5 5 0 015-5h25.087a5 5 0 015 5v15.96a3.422 3.422 0 01-3.422 3.422v0a3.422 3.422 0 00-3.388 3.899l.092.655c.112.791-.877 1.238-1.398.633l-2.96-3.445a5 5 0 00-3.792-1.742H6.5a5 5 0 01-5-5V34.658zm5.548 1.699h16.15m4.701 0h4.293M7.048 41.774h3.168m4.702 0h16.763M7.048 47.192h16.15m4.701 0h4.293m47.185-33.489a5 5 0 00-5-5H49.29a5 5 0 00-5 5v15.96a3.422 3.422 0 003.422 3.422v0c2.08 0 3.678 1.84 3.388 3.899l-.092.655c-.112.791.877 1.238 1.398.633l2.96-3.445a5 5 0 013.792-1.742h15.219a5 5 0 005-5V13.703z"/><circle cx="62.11" cy="21.778" r="3.801"/><path d="M51.554 17.216a1 1 0 011-1h3.833a1 1 0 00.743-.33l2.043-2.268a1 1 0 01.743-.33h4.388a1 1 0 01.743.33l2.043 2.267a1 1 0 00.743.33h3.833a1 1 0 011 1v10.327a1 1 0 01-1 1H52.554a1 1 0 01-1-1V17.216z"/></g><defs><clipPath id="clip0"><path fill="#fff" transform="translate(.5 .5)" d="M0 0h80v80H0z"/></clipPath></defs></svg>