<svg width="81" height="81" fill="none" xmlns="http://www.w3.org/2000/svg"><g clip-path="url(#clip0)" stroke="#13AD89" stroke-linecap="round" stroke-linejoin="round"><circle cx="20.051" cy="52.577" r="5.513" stroke-width="1.6"/><circle cx="60.518" cy="52.577" r="5.513" stroke-width="1.6"/><path d="M10.287 69.341c0-5.48 4.442-9.922 9.922-9.922v0c5.48 0 9.922 4.442 9.922 9.922v4.69H10.287v-4.69zM38.937 6.97h2.743m5.615 0h26.16a6 6 0 016 6v17.797a6 6 0 01-6 6H62.48v0c-.704 0-1.276.572-1.276 1.276v2.07c0 .862-.937 1.398-1.68.96l-5.904-3.476a6 6 0 00-3.044-.83H31.59a6 6 0 00-2.861.726l-6.753 3.664a1.132 1.132 0 01-1.671-.995v-2.31c0-.599-.486-1.085-1.085-1.085v0H7.545a6 6 0 01-6-6V12.97a6 6 0 016-6h25.713" stroke-width="1.6"/><path d="M26.48 22.538h.816m12.752 0h.691m11.797 0h.71" stroke-width="4"/><path d="M50.754 69.341c0-5.48 4.443-9.922 9.922-9.922v0c5.48 0 9.922 4.442 9.922 9.922v4.69H50.755v-4.69z" stroke-width="1.6"/></g><defs><clipPath id="clip0"><path fill="#fff" transform="translate(.5 .5)" d="M0 0h80v80H0z"/></clipPath></defs></svg>