<svg width="81" height="81" fill="none" xmlns="http://www.w3.org/2000/svg"><g clip-path="url(#clip0)" stroke="#13AD89" stroke-width="1.6" stroke-linecap="round"><rect x="1.959" y="27.528" width="76.606" height="51.644" rx="6"/><path d="M39.487 17.888l-5.336 9.296h32.191l-5.336-9.296H39.487zM13.87 24.513a4.043 4.043 0 014.044-4.043v0a4.043 4.043 0 014.043 4.043v2.67H13.87v-2.67z"/><circle cx="50.247" cy="53.289" r="11.252"/><path d="M55.555 53.29a5.309 5.309 0 00-5.308-5.31m-16.67-3.015a18.632 18.632 0 108.573-8.458m-29.614 4.04h10.678m26.951-29.392V1.087m6.712 10.068l7.12-7.119m-20.748 7.12l-7.119-7.12"/></g><defs><clipPath id="clip0"><path fill="#fff" transform="translate(.5 .5)" d="M0 0h80v80H0z"/></clipPath></defs></svg>