<svg width="81" height="81" fill="none" xmlns="http://www.w3.org/2000/svg"><path d="M78.968 30.564v-4.272a3 3 0 00-3-3H30.232a3 3 0 00-3 3v46.562a3 3 0 003 3h45.736a3 3 0 003-3v-31.16m0-7.383v2.755" stroke="#13AD89" stroke-width="1.6" stroke-linecap="round" stroke-linejoin="round"/><path d="M12.635 35.943l11.23-27.795A3 3 0 0127.77 6.49l40.972 16.553M10.267 41.806l-1.702 4.212m-2.1 5.198l-2.977 7.368a3 3 0 001.658 3.905l22.066 8.915" stroke="#13AD89" stroke-width="1.6" stroke-linecap="round" stroke-linejoin="round"/><rect x="34.34" y="30.513" width="37.521" height="38.12" rx="3" stroke="#13AD89" stroke-width="1.6" stroke-linecap="round" stroke-linejoin="round"/><path d="M35.497 68.25L45.99 50.178c1.162-2.002 4.058-1.99 5.202.023l.615 1.08m-4.408 16.97l9.598-17.567c1.16-2.123 4.227-2.07 5.313.092l1.9 3.78m6.88 13.696l-6.88-13.696m0 0h-5.571" stroke="#13AD89" stroke-width="1.6" stroke-linecap="round" stroke-linejoin="round"/><circle cx="64.478" cy="37.947" r="4.018" stroke="#13AD89" stroke-width="1.6" stroke-linecap="round" stroke-linejoin="round"/></svg>